<svg height="516pt" preserveAspectRatio="xMidYMid meet" viewBox="0 0 516 516" width="516pt" xmlns="http://www.w3.org/2000/svg"><g transform="matrix(.1 0 0 -.1 0 516)"><path d="m2597 4958c-45-61-95-142-92-149 3-4-2-9-10-13-8-3-15-12-15-20s-4-16-8-18c-9-3-102-145-102-154 0-3-5-10-11-17-22-26-129-196-129-206 0-6-3-11-8-11-4 0-27-33-51-72-25-40-51-81-59-90s-11-23-6-30c4-7 3-10-1-6-7 7-115-141-115-156 0-5-65-106-78-122-16-18-36-59-34-66 1-5-2-8-7-8s-22-21-37-47c-15-27-30-50-34-53s-18-25-33-50c-27-45-27-45-28-15 0 17 0 57 1 89 1 57 1 59-17 46-17-14-17-14-1 5 14 17 16 46 17 192 0 157-2 171-17 167-16-5-16-5 0 5 20 14 25 126 5 114-9-5-9-3 0 8 8 10 11 93 11 277l1 262-82 1c-45 0-103 1-130 2-26 1-47-2-47-6 0-5-5-5-11-1-7 4-57 6-113 5-55-1-105-1-111-2-5 0-36 1-68 2-31 1-60 0-63-3s-5-493-5-1089c0-936-2-1087-15-1106-8-13-12-23-9-23s-5-11-17-25c-25-29-65-92-74-117-4-10-10-18-15-18s-9-5-9-11-12-26-26-44c-15-20-23-39-18-46 4-7 3-9-3-6-6 4-19-9-29-28s-23-35-27-35c-5 0-7-7-3-15 3-8 2-14-2-12-4 1-8-2-9-7s-5-12-10-15c-10-7-103-148-103-156 0-3-9-15-20-27-10-12-17-25-14-30 3-4 1-8-4-8-15 0-104-149-96-162 4-7 4-10-1-6-15 14-90-95-79-115 4-7 3-9-1-4-11 9-66-73-58-86 3-6 1-7-4-4-6 4-13 0-16-8-4-8-40-66-82-129-41-63-75-120-75-125 0-6-4-11-8-11-5 0-14-10-21-23-6-12-20-35-31-52-32-49-51-84-48-91 2-3-5-10-15-15-9-6-15-14-12-19 3-4-2-10-10-14-8-3-15-12-15-20s-3-16-7-18c-8-3-123-174-123-181 0-4 53-1 58 3 1 1 11 2 22 2s21-1 23-2c8-7 59-6 63 2 3 4 11 5 17 1 19-12 87-11 87 1 0 6 4 5 9-2 4-8 12-14 16-14s12 6 16 14c5 7 9 8 9 3 0-12 174-14 186-2 4 4 12 2 19-3 8-7 32 22 83 104 40 62 72 118 72 125 0 6 4 11 9 11 14 0 42 60 34 73-3 5-1 7 4 4 10-6 93 113 93 134 0 5 4 9 8 9 5 0 16 15 26 33 26 50 41 74 55 90 7 9 9 22 5 28-4 7-3 9 3 6 14-9 56 61 47 75-4 7-2 8 5 4 6-4 14 0 18 11 4 10 9 20 12 23s11 14 18 25c46 75 80 131 95 154 10 14 21 33 25 41 3 8 9 17 13 20 14 12 73 113 73 126 0 8 2 12 5 9 5-5 62 81 62 95 0 4 4 10 8 12 11 4 133 200 133 213 0 6 7 14 15 18s14 15 14 22c0 8 5 15 11 15s8 7 5 17c-4 10-4 14 0 10s14 2 21 13c12 18 13 24 1 38-12 15-11 16 4 4 14-11 18-10 27 6 7 13 7 22-1 30-7 7-5 10 8 9 10-1 23 7 29 18 5 11 26 45 46 75 19 30 46 75 60 100 13 25 32 54 42 65 10 10 15 26 12 34-3 9-3 12 1 8 8-7 54 55 54 72 0 6 4 11 8 11 10 0 37 50 34 63-1 4 2 7 7 7 15 0 53 69 45 81-4 8-3 9 5 5 6-4 14 0 18 11 4 10 15 27 25 37 10 11 18 23 18 28 0 4 25 47 57 95 31 48 56 93 56 100s4 13 8 13c13 0 89 131 83 142-4 7-2 8 4 4 7-4 17 4 24 21 7 15 15 30 19 33s21 30 40 60c18 30 37 58 42 61 6 4 7 14 4 23-4 9-2 15 5 13 5-1 19 13 29 31 10 17 15 32 12 32-4 0 3 7 16 16 14 10 21 23 18 35-3 10 0 17 6 16s15 7 21 18 27 45 47 75c68 105 154 244 161 262 10 24 25 23 33-2 3-11 10-20 15-20 4 0 15-18 24-40s21-40 27-40c5 0 8-4 5-9-4-5-3-11 1-13 10-4 42-57 50-80 3-10 9-18 14-18s9-4 9-10c0-19 87-150 95-142 5 4 5 1 1-6-9-14 28-65 39-54 5 4 5 1 1-5-7-13 8-48 31-71 7-7 13-20 13-28s5-14 10-14c6 0 10-5 10-11s14-30 30-54c17-24 30-48 30-54s5-11 10-11c6 0 10-4 10-9 0-19 128-220 135-213 5 4 5 2 2-5-4-6 0-19 9-27 8-9 13-16 9-16-3 0 2-11 11-25 14-21 19-23 33-13 14 12 14 11 2-4-11-15-8-26 28-83 23-35 41-68 41-72 0-5 11-21 25-36s23-27 20-27c-6 0 46-82 58-91 5-3 8-8 7-10-3-7 23-59 30-59 4 0 10-8 14-17 3-10 13-31 23-48 56-93 97-161 102-165 3-3 12-17 20-32s18-25 22-22c5 3 6-1 3-9s1-21 8-28c7-8 24-34 38-59 38-71 67-110 75-102 5 4 5 2 2-5-7-12 23-73 36-73 4 0 7-4 7-9 0-17 72-126 81-123 6 1 8-2 5-7-5-8 28-76 44-91 3-3 12-18 20-35 8-16 17-32 20-35 5-5 12-16 86-143 27-45 50-74 56-70 7 3 8 1 4-6-4-6 6-32 23-57s31-49 31-55c0-5 7-12 15-15 8-4 12-10 9-15s0-9 6-9 9-4 6-8c-3-5 3-18 14-29 10-12 17-23 14-26-2-2 2-10 11-17 8-7 15-17 15-22 0-6 14-30 30-55 17-24 30-48 30-54 0-5 5-9 10-9 6 0 10-4 10-9 0-8 109-193 127-216 4-5 14-22 22-37s17-25 21-23c4 3 7-3 6-13 0-9 4-16 11-15 7 2 10-3 7-11-3-7 2-20 10-29 9-9 16-19 16-24s10-24 23-42c20-29 29-34 65-35 23-1 42 3 42 9 0 5 4 4 9-3 4-8 12-14 16-14s12 6 16 14c7 10 9 10 9-2 0-13 1-13 10 0 5 8 10 10 10 5 0-14 113-13 122 0 5 7 8 7 8 0 0-14 83-14 92 0 5 6 8 5 8-4 0-11 3-11 17 0 9 8 14 9 11 4-4-6 17-10 55-10 48 0 62 4 62 15 0 9-8 14-19 13-12-1-15 2-8 9 9 9-19 73-39 88-3 3-14 20-23 37-9 18-21 33-26 33-6 0-9 3-7 8 2 6-89 160-102 172-3 3-14 21-25 40-10 19-24 40-30 45-6 6-12 16-14 23-1 7-25 47-52 88-28 42-50 80-50 85s-4 9-10 9c-5 0-10 5-10 10 0 6-18 38-40 71s-40 65-40 70-4 9-8 9c-5 0-14 12-21 27-16 34-82 136-96 145-5 4-6 8-1 8s2 8-6 18c-8 9-34 50-58 89-24 41-47 70-53 66-5-3-7-1-3 5 7 12-31 82-45 82-5 0-8 4-7 8 5 14-65 121-75 115-6-3-7-1-3 5 6 10-72 143-95 162-3 3-12 20-20 38-8 17-17 32-21 32-5 0-8 5-8 11 0 18-47 79-55 71-5-4-5-2-2 4 6 10-45 101-76 136-9 9-13 19-9 22 3 3 0 6-7 6s-9 5-6 10c3 6-1 10-9 10-10 0-13 6-9 17 5 12 3 14-7 8-9-6-11-4-5 5 4 7 3 15-2 19-5 3-20 24-33 46s-38 63-55 90c-18 28-65 103-105 167-40 65-77 115-81 112-5-3-6 3-2 12 4 11 2 15-4 11s-10-1-10 6c2 12-28 64-88 156-17 25-37 58-44 73-8 15-22 37-33 47-10 11-18 25-18 31s-5 8-12 4c-7-5-8-3-3 6 5 8 2 17-7 24-8 6-15 14-16 19-3 21-67 115-76 110-5-3-6-2-3 4 5 8-74 148-92 163-3 3-13 19-21 35-8 17-17 32-20 35s-13 19-22 35c-10 17-22 29-28 27-7-1-9 2-5 8 3 5-3 23-14 39-12 16-21 34-21 39 0 6-8 17-17 24-10 7-19 20-21 28s-8 17-13 18c-5 2-9 7-9 12 0 19-63 109-73 103-6-3-7-1-3 5 9 16-63 134-77 125-6-3-7-1-3 5s-13 42-36 79c-24 37-47 75-53 85-5 10-35 56-65 104-30 47-64 101-75 120-11 18-29 44-40 56-10 13-17 23-15 23s-1 8-6 18c-10 17-11 17-27-5zm53-512c0-3-4-8-10-11-5-3-10-1-10 4 0 6 5 11 10 11 6 0 10-2 10-4zm160 0c0-3-4-8-10-11-5-3-10-1-10 4 0 6 5 11 10 11 6 0 10-2 10-4zm-1205-75c3-5 2-12-3-15s-9 1-9 9c0 17 3 19 12 6zm1040-91c3-5 1-10-4-10-6 0-11 5-11 10 0 6 2 10 4 10 3 0 8-4 11-10zm160 0c3-5 1-10-4-10-6 0-11 5-11 10 0 6 2 10 4 10 3 0 8-4 11-10zm-551-78c3-5-1-9-9-9s-12 4-9 9c3 4 7 8 9 8s6-4 9-8zm-571-157c-3-9-8-14-10-11-3 3-2 9 2 15 9 16 15 13 8-4zm362 6c3-5 2-12-3-15s-9 1-9 9c0 17 3 19 12 6zm-764-24c-10-9-11-8-5 6 3 10 9 15 12 12s0-11-7-18zm169 13c0-5-2-10-4-10-3 0-8 5-11 10-3 6-1 10 4 10 6 0 11-4 11-10zm991-53c-10-9-11-8-5 6 3 10 9 15 12 12s0-11-7-18zm-506-267c-3-5-12-10-18-10-7 0-6 4 3 10 19 12 23 12 15 0zm159 2c3-5-1-9-9-9s-12 4-9 9c3 4 7 8 9 8s6-4 9-8zm-291-37c-3-9-8-14-10-11-3 3-2 9 2 15 9 16 15 13 8-4zm407-41c0-8-19-13-24-6-3 5 1 9 9 9s15-2 15-3zm-1005-164c3-5 1-10-4-10-6 0-11 5-11 10 0 6 2 10 4 10 3 0 8-4 11-10zm81-35c-1-8-5-17-8-21-5-4-4 16 1 34 3 9 9-1 7-13zm-76-125c0-5-2-10-4-10-3 0-8 5-11 10-3 6-1 10 4 10 6 0 11-4 11-10zm0-154c0-3-4-8-10-11-5-3-10-1-10 4 0 6 5 11 10 11 6 0 10-2 10-4zm2240-6c0-5-2-10-4-10-3 0-8 5-11 10-3 6-1 10 4 10 6 0 11-4 11-10zm155 0c3-5 1-10-4-10-6 0-11 5-11 10 0 6 2 10 4 10 3 0 8-4 11-10zm-2319-206c1-9 0-13-4-10-3 4-7 14-8 22-1 9 0 13 4 10 3-4 7-14 8-22zm244-114c0-5-5-10-11-10-5 0-7 5-4 10 3 6 8 10 11 10 2 0 4-4 4-10zm2324-78c3-5-1-9-9-9s-12 4-9 9c3 4 7 8 9 8s6-4 9-8zm-2484-76c0-3-4-8-10-11-5-3-10-1-10 4 0 6 5 11 10 11 6 0 10-2 10-4zm160 0c0-3-4-8-10-11-5-3-10-1-10 4 0 6 5 11 10 11 6 0 10-2 10-4zm2210-199c0-2-10-12-22-23l-23-19 19 23c18 21 26 27 26 19zm510-607c0-5-5-10-11-10-5 0-7 5-4 10 3 6 8 10 11 10 2 0 4-4 4-10zm0-154c0-3-4-8-10-11-5-3-10-1-10 4 0 6 5 11 10 11 6 0 10-2 10-4zm75-274c-3-3-11 0-18 7-9 10-8 11 6 5 10-3 15-9 12-12zm-3994-289c13-16 12-17-3-4-17 13-22 21-14 21 2 0 10-8 17-17zm314 8c3-5 2-12-3-15s-9 1-9 9c0 17 3 19 12 6z"/><path d="m2228 3063c-201-318-401-634-445-703-324-511-1049-1656-1195-1887-98-155-181-288-184-296-4-11 73-13 445-13h449l163 271c89 148 211 349 269 445 157 255 758 1248 804 1325 21 37 42 63 47 58 4-4 90-150 189-323 393-680 475-821 772-1320 73-124 164-277 202-340l68-116 452 2c248 0 455 2 459 3 5 0 0 13-11 28-10 16-108 174-217 353-108 179-221 363-250 410s-382 625-785 1285-759 1244-792 1298c-33 53-63 97-67 97-5 0-172-260-373-577z"/></g></svg>