<svg height="400" viewBox="0 0 400 400" width="400" xmlns="http://www.w3.org/2000/svg"><g fill-rule="evenodd"><path d="m281.6 56.4c-.317.44-.825.8-1.128.8s-1.055.54-1.672 1.2-1.333 1.2-1.592 1.2-1.162.72-2.008 1.6-1.746 1.6-2 1.6-1.154.72-2 1.6-1.74 1.6-1.988 1.6-1.693 1.26-3.212 2.8-2.958 2.8-3.198 2.8-1.861 1.44-3.602 3.2-3.358 3.2-3.593 3.2-2.938 2.52-6.007 5.6-5.766 5.6-5.993 5.6c-.541 0-12.007 11.467-12.007 12.008 0 .229-2.16 2.565-4.8 5.192s-4.8 4.97-4.8 5.208c0 .237-1.26 1.673-2.8 3.192s-2.8 2.96-2.8 3.203-1.08 1.501-2.4 2.797-2.4 2.557-2.4 2.804c0 .246-.9 1.325-2 2.396s-2 2.151-2 2.4-.9 1.329-2 2.4-2 2.158-2 2.414-.54.969-1.2 1.586-1.2 1.337-1.2 1.6-.54.983-1.2 1.6-1.2 1.337-1.2 1.6-.54.983-1.2 1.6-1.2 1.337-1.2 1.6-.54.983-1.2 1.6-1.2 1.337-1.2 1.6-.54.983-1.2 1.6-1.2 1.337-1.2 1.6-.54.983-1.2 1.6-1.2 1.369-1.2 1.672-.36.811-.8 1.128-.8.825-.8 1.128-.54 1.055-1.2 1.672-1.2 1.369-1.2 1.672-.36.811-.8 1.128-.8.857-.8 1.2-.36.883-.8 1.2-.8.857-.8 1.2-.36.883-.8 1.2-.8.897-.8 1.288c0 .392-.18.712-.4.712s-.4.32-.4.712c0 .391-.36.971-.8 1.288s-.8.857-.8 1.2-.36.883-.8 1.2-.8.857-.8 1.2-.36.883-.8 1.2-.8.897-.8 1.288c0 .392-.18.712-.4.712s-.4.32-.4.712c0 .391-.36.971-.8 1.288s-.8.897-.8 1.288c0 .392-.18.712-.4.712s-.4.32-.4.712c0 .391-.36.971-.8 1.288s-.8.897-.8 1.288c0 .392-.18.712-.4.712s-.4.32-.4.712c0 .391-.36.971-.8 1.288s-.8.897-.8 1.288c0 .392-.18.712-.4.712s-.4.32-.4.712c0 .391-.36.971-.8 1.288s-.8.897-.8 1.288c0 .392-.18.712-.4.712s-.4.36-.4.8-.18.8-.4.8-.4.36-.4.8-.18.8-.4.8-.4.36-.4.8-.18.8-.4.8-.4.32-.4.712c0 .391-.36.971-.8 1.288s-.8.897-.8 1.288c0 .392-.18.712-.4.712s-.4.36-.4.8-.18.8-.4.8-.4.36-.4.8-.18.8-.4.8-.4.36-.4.8-.18.8-.4.8-.4.36-.4.8-.18.8-.4.8-.4.36-.4.8-.18.8-.4.8-.4.36-.4.8-.18.8-.4.8-.4.36-.4.8-.18.8-.4.8-.4.36-.4.8-.18.8-.4.8-.4.54-.4 1.2-.18 1.2-.4 1.2-.4.36-.4.8-.18.8-.4.8-.4.36-.4.8-.18.8-.4.8-.4.36-.4.8-.18.8-.4.8-.4.36-.4.8-.18.8-.4.8-.4.54-.4 1.2-.18 1.2-.4 1.2-.4.36-.4.8-.18.8-.4.8-.4.463-.4 1.029c0 2.457-1.021 2.399-3.575-.203-1.309-1.334-2.585-2.426-2.834-2.426-.25 0-1.145-.72-1.991-1.6s-1.749-1.6-2.008-1.6-.975-.54-1.592-1.2-1.369-1.2-1.672-1.2-.811-.36-1.128-.8-.857-.8-1.2-.8-.883-.36-1.2-.8-.857-.8-1.2-.8-.883-.36-1.2-.8-.897-.8-1.288-.8c-.392 0-.712-.18-.712-.4s-.32-.4-.712-.4c-.391 0-.971-.36-1.288-.8s-.897-.8-1.288-.8c-.392 0-.712-.18-.712-.4s-.36-.4-.8-.4-.8-.18-.8-.4-.36-.4-.8-.4-.8-.18-.8-.4-.32-.4-.712-.4c-.391 0-.971-.36-1.288-.8s-.897-.8-1.288-.8c-.392 0-.712-.18-.712-.4s-.36-.4-.8-.4-.8-.18-.8-.4-.36-.4-.8-.4-.8-.18-.8-.4-.54-.4-1.2-.4-1.2-.18-1.2-.4-.36-.4-.8-.4-.8-.18-.8-.4-.36-.4-.8-.4-.8-.18-.8-.4-.36-.4-.8-.4-.8-.18-.8-.4-.36-.4-.8-.4-.8-.18-.8-.4-.36-.4-.8-.4-.8-.18-.8-.4-.54-.4-1.2-.4-1.2-.18-1.2-.4-.36-.4-.8-.4-.8-.18-.8-.4-.54-.4-1.2-.4-1.2-.18-1.2-.4-.36-.4-.8-.4-.8-.18-.8-.4-.54-.4-1.2-.4-1.2-.18-1.2-.4-.36-.4-.8-.4-.8-.18-.8-.4-.54-.4-1.2-.4-1.2-.18-1.2-.4-.36-.4-.8-.4-.8-.18-.8-.4-.54-.4-1.2-.4-1.2-.18-1.2-.4-.54-.4-1.2-.4-1.2-.18-1.2-.4-.54-.4-1.2-.4-1.2-.18-1.2-.4-.54-.4-1.2-.4-1.2-.18-1.2-.4-.54-.4-1.2-.4-1.2-.18-1.2-.4-.54-.4-1.2-.4-1.2-.18-1.2-.4-.54-.4-1.2-.4-1.2-.18-1.2-.4-.54-.4-1.2-.4-1.2-.18-1.2-.4-.72-.4-1.6-.4-1.6-.18-1.6-.4-.54-.4-1.2-.4-1.2-.18-1.2-.4-.54-.4-1.2-.4-1.2-.18-1.2-.4-.72-.4-1.6-.4-1.6-.18-1.6-.4-.54-.4-1.2-.4-1.2-.18-1.2-.4-.72-.4-1.6-.4-1.6-.18-1.6-.4-.72-.4-1.6-.4-1.6-.18-1.6-.4-.72-.4-1.6-.4-1.6-.18-1.6-.4-.9-.4-2-.4-2-.18-2-.4-.72-.4-1.6-.4-1.6-.18-1.6-.4-.9-.4-2-.4c-1.733 0-2 .107-2 .8 0 .44.18.8.4.8s.4.274.4.609 2.88 3.481 6.4 6.991 6.4 6.572 6.4 6.805 1.8 2.21 4 4.395 4 4.166 4 4.403 1.44 1.856 3.2 3.597 3.2 3.341 3.2 3.556c0 .214 1.44 1.843 3.2 3.62 1.76 1.776 3.2 3.42 3.2 3.653s.9 1.3 2 2.371 2 2.151 2 2.4.9 1.329 2 2.4 2 2.154 2 2.405c0 .252.72 1.149 1.6 1.995s1.6 1.743 1.6 1.995c0 .251.9 1.334 2 2.405s2 2.154 2 2.405c0 .252.72 1.149 1.6 1.995s1.6 1.746 1.6 2 .72 1.154 1.6 2 1.6 1.749 1.6 2.008.54.975 1.2 1.592 1.2 1.333 1.2 1.592.72 1.162 1.6 2.008 1.6 1.749 1.6 2.008.54.975 1.2 1.592 1.2 1.369 1.2 1.672.36.811.8 1.128.8.78.8 1.029.54 1.017 1.2 1.708 1.2 1.455 1.2 1.699.54.947 1.2 1.564 1.2 1.369 1.2 1.672.36.811.8 1.128.8.825.8 1.128.54 1.055 1.2 1.672 1.2 1.369 1.2 1.672.36.811.8 1.128.8.857.8 1.2.36.883.8 1.2.8.857.8 1.2.36.883.8 1.2.8.78.8 1.029.54 1.017 1.2 1.708 1.2 1.488 1.2 1.771.36.775.8 1.092.8.897.8 1.288c0 .392.18.712.4.712s.4.32.4.712c0 .391.36.971.8 1.288s.8.857.8 1.2.36.883.8 1.2.8.857.8 1.2.36.883.8 1.2.8.897.8 1.288c0 .392.18.712.4.712s.4.32.4.712c0 .391.36.971.8 1.288s.8.897.8 1.288c0 .392.18.712.4.712s.4.32.4.712c0 .391.36.971.8 1.288s.8.897.8 1.288c0 .392.18.712.4.712s.4.32.4.712c0 .391.36.971.8 1.288s.8.897.8 1.288c0 .392.18.712.4.712s.4.36.4.8.18.8.4.8.4.36.4.8.18.8.4.8.4.32.4.712c0 .391.36.971.8 1.288s.8.897.8 1.288c0 .392.18.712.4.712s.4.36.4.8.18.8.4.8.4.36.4.8.18.8.4.8.4.36.4.8.18.8.4.8.4.36.4.8.18.8.4.8.4.36.4.8.18.8.4.8.4.36.4.8.18.8.4.8.4.36.4.8.18.8.4.8.4.54.4 1.2.18 1.2.4 1.2.4.36.4.8.18.8.4.8.4.36.4.8.18.8.4.8.4.36.4.8.18.8.4.8.4.54.4 1.2.18 1.2.4 1.2.4.36.4.8.18.8.4.8.4.36.4.8.18.8.4.8.4.54.4 1.2.18 1.2.4 1.2.4.36.4.8.18.8.4.8.4.54.4 1.2.18 1.2.4 1.2.4.36.4.8c0 .622.267.8 1.2.8s1.2-.178 1.2-.8c0-.44.18-.8.4-.8s.4-.36.4-.8.18-.8.4-.8.4-.36.4-.8.18-.8.4-.8.4-.36.4-.8.18-.8.4-.8.4-.36.4-.8.18-.8.4-.8.4-.36.4-.8.18-.8.4-.8.4-.36.4-.8.18-.8.4-.8.4-.32.4-.712c0-.391.36-.971.8-1.288s.8-.897.8-1.288c0-.392.18-.712.4-.712s.4-.32.4-.712c0-.391.36-.971.8-1.288s.8-.897.8-1.288c0-.392.18-.712.4-.712s.4-.36.4-.8.18-.8.4-.8.4-.32.4-.712c0-.391.36-.971.8-1.288s.8-.897.8-1.288c0-.392.18-.712.4-.712s.4-.32.4-.712c0-.391.36-.971.8-1.288s.8-.857.8-1.2.36-.883.8-1.2.8-.897.8-1.288c0-.392.18-.712.4-.712s.4-.32.4-.712c0-.391.36-.971.8-1.288s.8-.897.8-1.288c0-.392.18-.712.4-.712s.4-.32.4-.712c0-.391.36-.971.8-1.288s.8-.857.8-1.2.36-.883.8-1.2.8-.897.8-1.288c0-.392.18-.712.4-.712s.4-.32.4-.712c0-.391.36-.971.8-1.288s.8-.857.8-1.2.36-.883.8-1.2.8-.857.8-1.2.36-.883.8-1.2.8-.857.8-1.2.36-.883.8-1.2.8-.857.8-1.2.36-.883.8-1.2.8-.857.8-1.2.36-.883.8-1.2.8-.825.8-1.128.54-1.055 1.2-1.672 1.2-1.369 1.2-1.672.36-.811.8-1.128.8-.825.8-1.128.54-1.055 1.2-1.672 1.2-1.369 1.2-1.672.36-.811.8-1.128.8-.825.8-1.128.54-1.055 1.2-1.672 1.2-1.337 1.2-1.6.54-.983 1.2-1.6 1.2-1.337 1.2-1.6.54-.983 1.2-1.6 1.2-1.337 1.2-1.6.54-.983 1.2-1.6 1.2-1.337 1.2-1.6.54-.983 1.2-1.6 1.2-1.333 1.2-1.592.72-1.162 1.6-2.008 1.6-1.746 1.6-2 .72-1.154 1.6-2 1.6-1.746 1.6-2 .72-1.154 1.6-2 1.6-1.741 1.6-1.991c0-.249 1.08-1.513 2.4-2.809s2.4-2.554 2.4-2.797 1.26-1.684 2.8-3.203 2.8-2.949 2.8-3.178c0-.23 2.88-3.305 6.4-6.834 3.52-3.53 6.4-6.593 6.4-6.807 0-.508 8.271-8.781 8.778-8.781.213 0 2.736-2.34 5.607-5.2s5.409-5.2 5.64-5.2c.23 0 1.479-1.08 2.775-2.4s2.53-2.4 2.743-2.4 1.484-1.08 2.825-2.4c1.34-1.32 2.63-2.4 2.866-2.4s1.12-.72 1.966-1.6 1.749-1.6 2.008-1.6.975-.54 1.592-1.2 1.333-1.2 1.592-1.2 1.162-.72 2.008-1.6 1.749-1.6 2.008-1.6.975-.54 1.592-1.2 1.369-1.2 1.672-1.2.811-.36 1.128-.8.825-.8 1.128-.8 1.055-.54 1.672-1.2 1.369-1.2 1.672-1.2.811-.36 1.128-.8.857-.8 1.2-.8.883-.36 1.2-.8.857-.8 1.2-.8.883-.36 1.2-.8.857-.8 1.2-.8.883-.36 1.2-.8.857-.8 1.2-.8.883-.36 1.2-.8.897-.8 1.288-.8c.392 0 .712-.18.712-.4s.32-.4.712-.4c.391 0 .971-.36 1.288-.8s.897-.8 1.288-.8c.392 0 .712-.18.712-.4s.32-.4.712-.4c.391 0 .971-.36 1.288-.8s.897-.8 1.288-.8c.392 0 .712-.18.712-.4s.36-.4.8-.4.8-.18.8-.4.36-.4.8-.4.8-.18.8-.4.236-.4.525-.4c.288 0 .911-.36 1.383-.8s1.136-.8 1.475-.8.617-.18.617-.4.36-.4.8-.4.8-.18.8-.4.36-.4.8-.4.8-.18.8-.4.36-.4.8-.4.8-.18.8-.4.36-.4.8-.4.8-.18.8-.4.36-.4.8-.4.8-.18.8-.4.36-.4.8-.4.8-.18.8-.4.36-.4.8-.4.8-.18.8-.4.36-.4.8-.4.8-.18.8-.4.36-.4.8-.4.8-.18.8-.4.36-.4.8-.4.8-.18.8-.4.54-.4 1.2-.4 1.2-.18 1.2-.4.36-.4.8-.4.8-.18.8-.4.54-.4 1.2-.4 1.2-.18 1.2-.4.439-.4.976-.4 1.088-.18 1.224-.4.597-.4 1.024-.4.776-.18.776-.4.54-.4 1.2-.4 1.2-.18 1.2-.4.54-.4 1.2-.4 1.2-.18 1.2-.4.36-.4.8-.4.8-.18.8-.4.54-.4 1.2-.4 1.2-.18 1.2-.4.54-.4 1.2-.4 1.2-.18 1.2-.4.72-.4 1.6-.4 1.6-.18 1.6-.4.72-.4 1.6-.4 1.6-.18 1.6-.4.54-.4 1.2-.4 1.2-.18 1.2-.4.9-.4 2-.4 2-.18 2-.4.9-.4 2-.4 2-.18 2-.4.54-.4 1.2-.4c.802 0 1.2-.2 1.2-.603 0-.664-13.748-14.597-14.403-14.597-.225 0-4.724-4.32-9.997-9.6s-9.773-9.6-10-9.6-4.727-4.32-10-9.6-9.773-9.6-10-9.6-4.547-4.14-9.6-9.2-9.374-9.2-9.603-9.2-3.107-2.7-6.397-6c-6.446-6.466-7.754-7.206-9.2-5.2m43.499 44.811c2.424 2.242 7.52 7.104 15.501 14.789 2.64 2.542 8.361 8.02 12.713 12.173 8.652 8.258 8.593 8.161 5.46 8.91-16.72 3.997-39.021 13.492-56.971 24.255-12.892 7.731-26.849 17.557-37.802 26.617-32.811 27.136-61.042 58.879-88.443 99.445-4.377 6.48-12.22 18.642-14.833 23-4.717 7.87-8.343 14.087-9.917 17-1.703 3.154-2.7 4.6-3.171 4.6-.242 0-.484-.501-2.035-4.2-11.834-28.231-40.701-72.165-68.595-104.4-1.143-1.32-4.029-4.74-6.414-7.6-3.755-4.502-14.543-16.636-23.22-26.118-1.469-1.604-2.554-3.033-2.413-3.175.617-.616 13.305 3.188 17.241 5.17 38.012 19.139 68.456 47.742 80.648 75.771.467 1.074 1.246 2.852 1.731 3.952s1.294 3.035 1.798 4.3c1.142 2.869 1.138 2.869 2.823-.4 4.863-9.437 13.875-24.914 24.279-41.7 37.901-61.15 76.967-104.056 112.721-123.8 8.501-4.695 20.039-9.071 26.4-10.014 9.091-1.347 9.561-1.293 12.499 1.425" fill="#fcfbfb"/><path d="m313.051 100.43c-38.678 6.808-88.803 53.975-134.934 126.97-10.486 16.592-24 39.588-28.283 48.127-2.177 4.341-2.434 4.382-3.971.641-7.315-17.801-14.488-28.994-27.587-43.052-19.08-20.477-52.674-42.123-70.75-45.587-1.335-.256-.707.62 4.583 6.4 31.203 34.091 56.81 67.28 75.357 97.671 2.479 4.061 3.823 6.369 7.339 12.6 2.005 3.555 8.506 16.724 10.563 21.401 2.454 5.577 2.608 5.747 3.537 3.906 5.285-10.473 21.165-35.712 33.288-52.907 33.535-47.568 71.329-85.25 111.007-110.678 6.853-4.392 8.611-5.462 13.16-8.011 16.965-9.509 35.928-17.409 50.44-21.015 1.65-.41 3-.944 3-1.186 0-.371-6.886-7.048-34.043-33.01l-3.242-3.1-2.558.032c-1.406.018-4.514.377-6.906.798" fill="#f4746c"/><path d="m320.027 99.495 2.627.138 2.762 2.784c1.52 1.53 2.882 2.783 3.027 2.783.146 0-1.122-1.35-2.818-3l-3.082-3-2.572.078-2.571.079zm-8.827.925c-.674.229-.349.264 1 .108 1.1-.127 2.075-.297 2.167-.379.315-.281-2.168-.069-3.167.271m-3.4.78c-1.019.438.032.438 1.4 0 .804-.257.843-.323.2-.332-.44-.006-1.16.143-1.6.332m-12.2 4.4c-.77.422-1.22.766-1 .766s1.03-.344 1.8-.766 1.22-.766 1-.766-1.03.344-1.8.766m-3.915 1.671c-.943.458-1.65.898-1.569.978.08.08 1.032-.294 2.115-.831s1.789-.976 1.569-.977-1.172.373-2.115.83m46.883 7.589c4.638 4.544 8.478 8.217 8.535 8.164.118-.11-6.953-7.018-12.935-12.637-2.218-2.083-.238-.07 4.4 4.473m-56.068-2.634c-.935.561-1.7 1.114-1.7 1.229 0 .216 2.699-1.317 3.38-1.919.687-.608.047-.345-1.68.69m-9.4 5.988c-1.045.766-1.9 1.482-1.9 1.589 0 .149 2.531-1.52 4.367-2.88.091-.067.001-.119-.2-.113-.202.005-1.222.637-2.267 1.404m-3.915 3.015-1.385 1.229 1.5-1.077c1.326-.951 1.757-1.381 1.385-1.381-.063 0-.738.553-1.5 1.229m-3.2 2.4-1.385 1.229 1.5-1.077c1.326-.951 1.757-1.381 1.385-1.381-.063 0-.738.553-1.5 1.229m88.56 6.503c5.336 5.196 6.048 6.268 4.165 6.268-.464 0-.732.112-.595.248.413.414 2.285-.227 2.285-.782 0-.285-2.565-2.907-5.7-5.826l-5.7-5.308zm-93.467-2.719c-.618.543-.964.987-.77.987s.775-.45 1.292-1c1.195-1.272.931-1.266-.522.013m-10.575 9.193c-2.694 2.527-4.764 4.586-4.6 4.576.337-.021 10.006-9.161 9.697-9.166-.11-.002-2.404 2.063-5.097 4.59m105.097.594c-.824.264-.859.326-.2.354.44.019 1.07-.141 1.4-.354.701-.453.214-.453-1.2 0m-3 .8c-.504.217-.578.344-.2.344.33 0 .96-.155 1.4-.344.504-.217.578-.344.2-.344-.33 0-.96.155-1.4.344m-5.2 1.6c-.504.217-.578.344-.2.344.33 0 .96-.155 1.4-.344.504-.217.578-.344.2-.344-.33 0-.96.155-1.4.344m-105.414 5.1-2.186 2.3 2.3-2.186c1.265-1.203 2.3-2.238 2.3-2.3 0-.297-.382.049-2.414 2.186m90.497.369c-1.385.566-2.448 1.099-2.363 1.184.186.186 4.32-1.448 4.86-1.92.55-.482.298-.408-2.497.736m-4.683 2.109c-.88.417-1.487.772-1.349.79.389.05 3.149-1.154 3.149-1.373 0-.268-.001-.268-1.8.583m-91.707 3.546c-.938 1.032-3.163 3.451-4.943 5.376s-3.164 3.5-3.075 3.5 2.462-2.43 5.274-5.4c2.811-2.97 4.963-5.389 4.781-5.376-.181.014-1.098.869-2.037 1.9m85.907-.924c-.55.314-.82.572-.6.572s.85-.258 1.4-.572.82-.572.6-.572-.85.258-1.4.572m-11.3 5.677c-1.044.581-1.837 1.12-1.76 1.196.16.161 3.86-1.859 3.86-2.107 0-.251-.057-.226-2.1.911m-8.404 4.673c-1.921 1.181-2.458 1.739-.896.931 1.254-.648 2.945-1.855 2.6-1.856-.11 0-.877.416-1.704.925m-75.31.437c-.212.302-1.168 1.464-2.123 2.581-.956 1.118-1.649 2.032-1.54 2.032.33 0 4.394-4.817 4.215-4.995-.091-.092-.34.08-.552.382m68.514 3.821c-1.045.657-1.9 1.281-1.9 1.389s.9-.358 2-1.035 2-1.305 2-1.396c0-.264-.097-.216-2.1 1.042m-73.314 1.779c-.212.302-1.168 1.464-2.123 2.581-.956 1.118-1.658 2.032-1.56 2.032.308 0 4.396-4.835 4.229-5.002-.088-.088-.334.087-.546.389m-4.827 5.913c-1.752 2.021-2.272 2.7-2.069 2.7.117 0 .877-.81 1.689-1.8 1.502-1.834 1.8-2.537.38-.9m64.241 1.542c-3.14 2.293-3.469 2.808-.478.748 2.144-1.476 3.284-2.442 2.802-2.372-.068.01-1.114.741-2.324 1.624m-68.313 3.402c-.722.966-1.232 1.756-1.133 1.756.283 0 2.759-3.221 2.594-3.374-.081-.076-.739.652-1.461 1.618m63.513.205c-1.394 1.222-1.395 1.223-.112.37.708-.471 1.394-1.028 1.524-1.238.385-.624.065-.427-1.412.868m-3.4 2.383c-2.373 1.794-2.692 2.3-.467.74 1.681-1.178 2.596-1.997 2.191-1.961-.068.006-.844.556-1.724 1.221m-63.223 1.468c-2.123 2.654-2.3 2.9-2.085 2.9.104 0 1.038-1.08 2.076-2.4 1.037-1.32 1.805-2.4 1.707-2.4s-.863.855-1.698 1.9m57.723 2.732c-1.485 1.215-2.7 2.298-2.7 2.406s1.26-.822 2.8-2.066c2.434-1.966 3.107-2.605 2.7-2.561-.055.006-1.315 1.005-2.8 2.221m-60.756 1.268c-1.151 1.389-1.638 2.1-1.44 2.1.11 0 .682-.63 1.269-1.4 1.09-1.429 1.222-1.968.171-.7m-161.134 2.133c.01.574 2.993 3.967 3.488 3.967.148 0-.508-.791-1.457-1.758s-1.692-1.882-1.65-2.034c.042-.151-.029-.38-.158-.508-.128-.128-.228.022-.223.333m216.19 1.416-2 1.832 2.2-1.721c1.21-.947 2.275-1.775 2.367-1.841.091-.065.001-.115-.2-.111-.202.005-1.267.833-2.367 1.841m-57.456-.349c-1.151 1.389-1.638 2.1-1.44 2.1.11 0 .682-.63 1.269-1.4 1.09-1.429 1.222-1.968.171-.7m-154.711-.156c.092.079.707.264 1.367.412.876.196 1.038.159.6-.138-.54-.365-2.368-.62-1.967-.274m8 2.391c.386.312 3.567 1.442 3.567 1.267 0-.239-2.749-1.402-3.316-1.402-.229 0-.342.061-.251.135m143.067 2.565c-2.097 2.761-3.795 5.254-3.201 4.7.64-.597 5.326-7 5.123-7-.097 0-.961 1.035-1.922 2.3m56.078-.19c-2.16 2.031-1.772 1.789 1.336-.833.833-.702 1.373-1.273 1.2-1.267-.173.005-1.314.95-2.536 2.1m-204.962 1.466c3.485 3.935 5.783 6.364 5.771 6.1-.006-.152-1.671-1.997-3.7-4.1-2.028-2.102-2.96-3.002-2.071-2m11.384-1.397c0 .11.54.48 1.2.821s1.2.531 1.2.421-.54-.48-1.2-.821-1.2-.531-1.2-.421m4.8 2.643c1.033.704 3.6 2.003 3.6 1.82 0-.209-3.595-2.245-3.95-2.236-.138.003.02.19.35.416m182.376 2.89c-3.079 2.94-2.266 2.386 1.507-1.028 1.145-1.036 1.955-1.879 1.8-1.872-.156.006-1.644 1.311-3.307 2.9m-178.176-.622c.22.21 1.12.786 2 1.28.88.495 1.24.6.8.234-.894-.743-3.428-2.113-2.8-1.514m123.329 2.41c-.951 1.118-2.401 3.3-2.194 3.3.105 0 .837-.9 1.627-2 1.423-1.981 1.715-2.65.567-1.3m-119.529-.121c0 .11.54.48 1.2.821s1.2.531 1.2.421-.54-.48-1.2-.821-1.2-.531-1.2-.421m-16.784 2.397c1.971 2.376 4.784 5.386 4.772 5.107-.006-.156-1.311-1.644-2.9-3.307-1.588-1.664-2.431-2.474-1.872-1.8m19.584-.877c.488.508 10.352 6.948 10.157 6.631-.252-.407-7.859-5.546-9.357-6.321-.55-.285-.91-.424-.8-.31m155.628 11.9c-6.615 6.641-12.028 12.22-12.028 12.395 0 .176 2.902-2.676 6.45-6.337 3.547-3.661 7.372-7.546 8.5-8.632 7.741-7.455 9.443-9.165 9.285-9.324-.099-.098-5.592 5.256-12.207 11.898m-167.879-2.681c1.292 1.475 2.435 2.682 2.539 2.682.265 0-3.864-4.739-4.429-5.083-.253-.154.598.926 1.89 2.401m29.032 2.189c1.702 1.515 5.619 4.558 5.619 4.365 0-.188-5.476-4.624-6.219-5.038-.23-.129.04.174.6.673m-25.38 2.152c5.323 6.344 7.399 8.732 7.399 8.511 0-.332-7.565-9.301-8.151-9.664-.246-.151.093.367.752 1.153m33.784 4.625c1.218 1.147 2.351 2.092 2.516 2.1.166.009-.464-.651-1.4-1.466-2.872-2.501-3.45-2.829-1.116-.634m7.143 6.358c2.27 2.177 5.78 5.681 7.8 7.787s2.773 2.826 1.675 1.6c-3.79-4.23-8.012-8.496-10.803-10.917-1.716-1.488-1.202-.896 1.328 1.53m-29.897 2.226c1.853 2.31 3.437 4.147 3.52 4.082.181-.142-5.891-7.666-6.48-8.03-.224-.138 1.108 1.638 2.96 3.948m96.615-1.868c-.355.55-.937 1.495-1.293 2.1l-.648 1.1.805-.974c.95-1.15 2.211-3.226 1.959-3.226-.098 0-.468.45-.823 1m42.334 1.9c-4.147 4.445-4.727 5.1-4.51 5.1.127 0 1.621-1.53 3.318-3.4 1.698-1.87 3.018-3.4 2.933-3.4s-.868.765-1.741 1.7m-46.272 4.4c-.875 1.349-1.66 2.956-1.221 2.5.561-.583 2.211-3.4 1.992-3.4-.103 0-.45.405-.771.9m-87.469 1.9c.724.99 1.371 1.875 1.438 1.967.068.091.12.001.117-.2-.003-.202-.65-1.087-1.438-1.967l-1.432-1.6zm126.487 1.827c-1.279 1.444-2.395 2.822-2.479 3.06-.085.238.536-.359 1.379-1.327s2.073-2.345 2.732-3.06 1.085-1.3.946-1.3-1.299 1.182-2.578 2.627m-124.092 1.154c.414.743 4.85 6.219 5.038 6.219.099 0-.638-1.035-1.638-2.3-2.037-2.575-3.755-4.556-3.4-3.919m35.321 2.338c.848 1.034 1.625 1.881 1.727 1.881.273 0-2.261-3.14-2.805-3.476-.255-.158.23.56 1.078 1.595m45.753-.819c-.875 1.349-1.66 2.956-1.221 2.5.561-.583 2.211-3.4 1.992-3.4-.103 0-.45.405-.771.9m37.841 3.384c-1.072 1.256-1.74 2.155-1.485 1.999.559-.344 3.89-4.283 3.622-4.283-.104 0-1.066 1.028-2.137 2.284m-111.949 4.116c1.016 1.32 1.937 2.4 2.047 2.4s-.631-1.08-1.647-2.4-1.937-2.4-2.047-2.4.631 1.08 1.647 2.4m32.775-1.068c.616.807 1.201 1.468 1.3 1.468.278 0-1.454-2.34-1.966-2.656-.25-.155.05.38.666 1.188m75.412 1.484c-.929 1.109-1.621 2.075-1.538 2.147.083.071.925-.836 1.87-2.016 2.176-2.718 1.918-2.819-.332-.131m-38.879.084c-.875 1.349-1.66 2.956-1.221 2.5.561-.583 2.211-3.4 1.992-3.4-.103 0-.45.405-.771.9m-32.463 4.182c2.476 3.704 3.478 5.053 2.761 3.718-.755-1.406-4.67-7.193-5.007-7.401-.203-.125.808 1.532 2.246 3.683m-33.854-.694c.466.653 1.051 1.314 1.3 1.468.25.155-.05-.38-.666-1.188-1.337-1.753-1.841-1.976-.634-.28m101.784.68c-.616.808-.916 1.343-.666 1.188.512-.316 2.244-2.656 1.966-2.656-.099 0-.684.661-1.3 1.468m-37.961-.033c-.373.569-.609 1.103-.525 1.187.084.085.469-.381.855-1.034.862-1.46.604-1.579-.33-.153m-61.423 2.553c.466.653 1.051 1.314 1.3 1.468.25.155-.05-.38-.666-1.188-1.337-1.753-1.841-1.976-.634-.28m59.009 1.612c-.341.66-.531 1.2-.421 1.2s.48-.54.821-1.2.531-1.2.421-1.2-.48.54-.821 1.2m-56.184 2.163c.752 1.046 1.54 2.01 1.751 2.14s-.232-.619-.983-1.666c-.752-1.046-1.54-2.01-1.751-2.14s.232.619.983 1.666m54.584.637c-.341.66-.531 1.2-.421 1.2s.48-.54.821-1.2.531-1.2.421-1.2-.48.54-.821 1.2m35.627 1.3c-1.041 1.375-1.324 1.87-.63 1.1 1.448-1.607 2.937-3.6 2.689-3.6-.092 0-1.019 1.125-2.059 2.5m-56.427.3c.341.66.711 1.2.821 1.2s-.08-.54-.421-1.2-.711-1.2-.821-1.2.08.54.421 1.2m-30.188 2.722c.954 1.386 1.924 2.638 2.155 2.781.474.293-2.375-3.774-3.295-4.703-.327-.33.186.535 1.14 1.922m84.093.178c-1.623 2.067-4.898 6.7-4.736 6.7.11 0 1.222-1.395 2.472-3.1 1.249-1.705 2.448-3.325 2.664-3.6s.303-.5.193-.5-.377.225-.593.5m-36.305 1.1c-.341.66-.531 1.2-.421 1.2s.48-.54.821-1.2.531-1.2.421-1.2-.48.54-.821 1.2m-14.322 2.195c.366.767.736 1.324.823 1.237.183-.183-1.031-2.632-1.305-2.632-.101 0 .116.628.482 1.395m12.722.605c-.341.66-.531 1.2-.421 1.2s.48-.54.821-1.2.531-1.2.421-1.2-.48.54-.821 1.2m-41.378 2.8c1.356 1.98 2.545 3.6 2.642 3.6.221 0 .019-.321-2.576-4.114-1.162-1.697-2.207-3.086-2.322-3.086-.116 0 .9 1.62 2.256 3.6m30.185-.121c.6 1.435.993 2.083.993 1.637 0-.432-1.215-3.116-1.411-3.116-.11 0 .078.666.418 1.479m9.593.121c-.341.66-.531 1.2-.421 1.2s.48-.54.821-1.2.531-1.2.421-1.2-.48.54-.821 1.2m33.35 1.7c-.498.715-1.365 1.921-1.928 2.68-.562.759-.83 1.263-.595 1.121.506-.306 3.914-5.101 3.626-5.101-.109 0-.606.585-1.103 1.3m-68.991 4.464c2.673 4.178 4.356 6.636 4.544 6.636.104 0-.084-.417-.418-.927-.334-.509-1.626-2.489-2.871-4.4-1.246-1.91-2.349-3.473-2.451-3.473-.103 0 .435.974 1.196 2.164m64.241 2.236c-.896 1.32-1.54 2.4-1.43 2.4s.934-1.08 1.83-2.4 1.54-2.4 1.43-2.4-.934 1.08-1.83 2.4m-34.408.3c.24.495.603.9.808.9s.568-.405.808-.9c.419-.864.411-.869-.186-.124-.616.769-.628.769-1.244 0-.597-.745-.605-.74-.186.124m-21.992 9.42c0 .384 2.045 3.48 2.299 3.48.179 0-.458-1.081-1.76-2.989-.297-.434-.539-.655-.539-.491m48.087 2.38c-1.46 2.156-1.775 2.7-1.567 2.7.092 0 .824-.99 1.627-2.2.804-1.21 1.378-2.2 1.276-2.2-.101 0-.703.765-1.336 1.7m-44.872 2.9c.002.22.371.85.821 1.4.543.664.679.731.404.2-.674-1.305-1.228-2.028-1.225-1.6m2.109 3.6c.338.66.914 1.56 1.28 2s.261.08-.234-.8c-1.09-1.942-1.906-2.878-1.046-1.2m36.413 3.3c-.651 1.045-1.509 2.395-1.906 3-.398.605-.638 1.1-.534 1.1.208 0 2.687-3.662 3.452-5.1.847-1.591.208-.96-1.012 1m-32.891 2.896c.493.877.962 1.53 1.041 1.45.172-.172-1.481-3.046-1.752-3.046-.102 0 .217.718.711 1.596m27.906 4.904c-.262.495-.737 1.35-1.056 1.9-.557.959-.553.967.092.2.798-.948 1.917-3 1.636-3-.108 0-.41.405-.672.9m-2.4 4c-.262.495-.737 1.35-1.056 1.9-.557.959-.553.967.092.2.798-.948 1.917-3 1.636-3-.108 0-.41.405-.672.9m-2.4 4c-.262.495-.737 1.35-1.056 1.9-.557.959-.553.967.092.2.798-.948 1.917-3 1.636-3-.108 0-.41.405-.672.9m-2.4 4c-.262.495-.737 1.35-1.056 1.9-.557.959-.553.967.092.2.798-.948 1.917-3 1.636-3-.108 0-.41.405-.672.9m-11.152 1.584c0 .432 1.215 3.116 1.411 3.116.11 0-.078-.666-.418-1.479-.6-1.435-.993-2.083-.993-1.637m1.6 3.6c0 .432 1.215 3.116 1.411 3.116.11 0-.078-.666-.418-1.479-.6-1.435-.993-2.083-.993-1.637m3.6 5.492c0 .289-.26.41-.6.279-.33-.126-.6-.056-.6.158 0 .213.259.387.576.387.653 0 1.228-.729.864-1.093-.132-.132-.24-.011-.24.269" fill="#f7a49e"/><path d="m335.2 111.325c0 .069.585.654 1.3 1.3l1.3 1.175-1.175-1.3c-1.095-1.212-1.425-1.484-1.425-1.175m18.4 17.6c0 .069.585.654 1.3 1.3l1.3 1.175-1.175-1.3c-1.095-1.212-1.425-1.484-1.425-1.175m-117.013 83.175-2.387 2.5 2.5-2.387c1.375-1.314 2.5-2.439 2.5-2.5 0-.296-.395.065-2.613 2.387" fill="#fcb4b1"/><path d="m319.5 99.082c.495.096 1.305.096 1.8 0 .495-.095.09-.173-.9-.173s-1.395.078-.9.173m-5.5.518c-.792.254-.833.32-.2.32.44 0 1.25-.144 1.8-.32.792-.254.833-.32.2-.32-.44 0-1.25.144-1.8.32m-4.6.8c-.504.217-.578.344-.2.344.33 0 .96-.155 1.4-.344.504-.217.578-.344.2-.344-.33 0-.96.155-1.4.344m21.296 6.537c2.363 2.312 4.346 4.155 4.406 4.094.15-.15-7.85-7.998-8.324-8.165-.208-.073 1.554 1.759 3.918 4.071m-43.996 2.492c-1.495.811-1.404 1.149.1.371.66-.341 1.2-.706 1.2-.81 0-.258-.043-.243-1.3.439m-4.6 2.617c-1.363.873-1.805 1.46-.6.797.918-.504 2.356-1.616 2.1-1.624-.11-.003-.785.369-1.5.827m56.9 2.754c1.971 1.98 3.673 3.6 3.783 3.6s-1.412-1.62-3.383-3.6-3.673-3.6-3.783-3.6 1.412 1.62 3.383 3.6m-65.907 3.014c-.821.558-1.493 1.101-1.493 1.206s.72-.285 1.6-.867c1.397-.925 1.87-1.353 1.493-1.353-.059 0-.779.456-1.6 1.014m-3.508 2.615-1.385 1.229 1.5-1.077c1.326-.951 1.757-1.381 1.385-1.381-.063 0-.738.553-1.5 1.229m79.511 4.108c2.363 2.312 4.346 4.155 4.406 4.094.15-.15-7.85-7.998-8.324-8.165-.208-.073 1.554 1.759 3.918 4.071m-86.296 1.097-1.8 1.631 1.9-1.481c1.666-1.298 2.159-1.787 1.8-1.783-.055.001-.91.735-1.9 1.633m-4.6 3.815-2 1.832 2.2-1.721c1.21-.947 2.275-1.775 2.367-1.841.091-.065.001-.115-.2-.111-.202.005-1.267.833-2.367 1.841m99.106 2.765c2.872 2.96 3.415 3.711 3 4.15-.411.435-.398.503.069.361 1.167-.355.749-1.016-2.873-4.531l-3.702-3.594zm-102.731.286-1.175 1.3 1.3-1.175c.715-.646 1.3-1.231 1.3-1.3 0-.309-.33-.037-1.425 1.175m-3.59 3.2-1.985 2.1 2.1-1.985c1.951-1.844 2.283-2.215 1.985-2.215-.063 0-1.008.945-2.1 2.1m106.215 1.518c-.438.297-.276.334.6.138 1.471-.329 1.79-.558.767-.55-.422.003-1.037.189-1.367.412m-115.814 7.596c-3.507 3.512-6.287 6.386-6.176 6.386.288 0 12.817-12.507 12.672-12.651-.066-.066-2.989 2.753-6.496 6.265m75.714 7.815c-1.551.841-1.375 1.132.2.33 1.508-.766 1.775-.965 1.267-.943-.202.009-.862.285-1.467.613m-86.666 3.643c-1.999 2.13-3.634 4.02-3.634 4.201s.664-.436 1.477-1.372c.812-.935 2.561-2.826 3.888-4.201s2.297-2.5 2.158-2.5c-.14 0-1.89 1.743-3.889 3.872m74.366 2.964c-.664.543-.731.679-.2.404 1.305-.674 2.028-1.228 1.6-1.225-.22.002-.85.371-1.4.821m-2.5 1.393c-1.495.811-1.404 1.149.1.371.66-.341 1.2-.706 1.2-.81 0-.258-.043-.243-1.3.439m-77.325 1.871-1.175 1.3 1.3-1.175c.715-.646 1.3-1.231 1.3-1.3 0-.309-.33-.037-1.425 1.175m72.725.926c-.935.561-1.7 1.114-1.7 1.229 0 .216 2.699-1.317 3.38-1.919.687-.608.047-.345-1.68.69m-75.125 1.874-1.175 1.3 1.3-1.175c.715-.646 1.3-1.231 1.3-1.3 0-.309-.33-.037-1.425 1.175m-2.4 2.8-1.175 1.3 1.3-1.175c.715-.646 1.3-1.231 1.3-1.3 0-.309-.33-.037-1.425 1.175m-3.829 4.6c-1.462 1.603-5.248 6.5-5.024 6.5.105 0 1.566-1.71 3.247-3.8 3.012-3.745 3.741-4.853 1.777-2.7m64.254 2.132c-2.373 1.794-2.692 2.3-.467.74 1.681-1.178 2.596-1.997 2.191-1.961-.068.006-.844.556-1.724 1.221m-4.2 3.217c-1.394 1.222-1.395 1.223-.112.37.708-.471 1.394-1.028 1.524-1.238.385-.624.065-.427-1.412.868m-4 2.797c-1.21.903-2.56 2.006-3 2.452-.714.722 4.245-2.857 5.18-3.739.899-.849-.143-.234-2.18 1.287m-64.225 2.222c-.616.808-.916 1.343-.666 1.188.512-.316 2.244-2.656 1.966-2.656-.099 0-.684.661-1.3 1.468m56.903 3.545c-.618.543-.964.987-.77.987s.775-.45 1.292-1c1.195-1.272.931-1.266-.522.013m-220.278.112c0 .179.584.854 1.299 1.5 1.043.944 1.122.974.4.149-1.216-1.388-1.133-1.679.401-1.407.987.175 1.108.142.5-.14-1.01-.468-2.6-.531-2.6-.102m4.6.875c.44.189 1.07.344 1.4.344.378 0 .304-.127-.2-.344-.44-.189-1.07-.344-1.4-.344-.378 0-.304.127.2.344m153.975 1.868c-.616.808-.916 1.343-.666 1.188.512-.316 2.244-2.656 1.966-2.656-.099 0-.684.661-1.3 1.468m56.903 1.145c-.618.543-.964.987-.77.987s.775-.45 1.292-1c1.195-1.272.931-1.266-.522.013m-210.078 2.187c1.306 1.32 2.465 2.4 2.575 2.4s-.869-1.08-2.175-2.4-2.465-2.4-2.575-2.4.869 1.08 2.175 2.4m207.192.312c-.665.598-1.813 1.59-2.551 2.204s-1.274 1.184-1.191 1.265c.082.082 1.32-.91 2.75-2.203s2.51-2.352 2.4-2.353-.744.488-1.408 1.087m-192.992-.133c0 .11.54.48 1.2.821s1.2.531 1.2.421-.54-.48-1.2-.821-1.2-.531-1.2-.421m134.915 1.921c-1.734 2.267-2.649 3.62-2.306 3.413.472-.286 3.128-3.913 2.865-3.913-.097 0-.348.225-.559.5m-145.115 2.3c.859.88 1.652 1.6 1.762 1.6s-.503-.72-1.362-1.6-1.652-1.6-1.762-1.6.503.72 1.362 1.6m16.2-1.021c0 .11.54.48 1.2.821s1.2.531 1.2.421-.54-.48-1.2-.821-1.2-.531-1.2-.421m180.981 2.321-1.581 1.7 1.7-1.581c1.581-1.471 1.884-1.819 1.581-1.819-.065 0-.83.765-1.7 1.7m-177.381-.136c.55.45 1.18.819 1.4.821.428.003-.295-.551-1.6-1.225-.531-.275-.464-.139.2.404m-17.6 1.086c0 .211.855 1.186 1.9 2.167l1.9 1.783-1.8-1.993c-.99-1.095-1.845-2.07-1.9-2.166s-.1-.002-.1.209m20.8.729c0 .11.54.48 1.2.821s1.2.531 1.2.421-.54-.48-1.2-.821-1.2-.531-1.2-.421m118.115.321c-1.734 2.267-2.649 3.62-2.306 3.413.472-.286 3.128-3.913 2.865-3.913-.097 0-.348.225-.559.5m52.591.911c-.822.764-1.352 1.389-1.179 1.389.174 0 .927-.63 1.673-1.4 1.741-1.797 1.443-1.79-.494.011m-167.706.478c.627.637 9 6.153 9 5.929 0-.11-1.845-1.432-4.1-2.937-4.49-2.997-5.531-3.633-4.9-2.992m-18.8 3.311c.859.88 1.652 1.6 1.762 1.6s-.503-.72-1.362-1.6-1.652-1.6-1.762-1.6.503.72 1.362 1.6m173.397 9.1-10.197 10.3 10.3-10.197c5.665-5.608 10.3-10.243 10.3-10.3 0-.283-.927.626-10.403 10.197m-170.197-5.5c.859.88 1.637 1.6 1.728 1.6.337 0-2.542-3.134-2.909-3.166-.21-.019.322.686 1.181 1.566m1.8 2.125c0 .069.585.654 1.3 1.3l1.3 1.175-1.175-1.3c-1.095-1.212-1.425-1.484-1.425-1.175m28.144.584c.316.512 2.656 2.244 2.656 1.966 0-.099-.661-.684-1.468-1.3-.808-.616-1.343-.916-1.188-.666m-24.145 4.09c.92 1.099 1.882 2.127 2.137 2.284.255.156-.413-.743-1.485-1.999-1.071-1.256-2.033-2.284-2.137-2.284s.565.899 1.485 1.999m31.201 1.315c0 .104 1.028 1.066 2.284 2.137 1.256 1.072 2.155 1.74 1.999 1.485-.344-.559-4.283-3.89-4.283-3.622m-27.264 3.403c.955 1.144 1.945 2.208 2.2 2.363.255.156-.317-.653-1.272-1.797s-1.945-2.208-2.2-2.363c-.255-.156.317.653 1.272 1.797m32.064.654c0 .139.675.833 1.5 1.541.825.707 2.58 2.274 3.9 3.482 1.32 1.207 1.86 1.595 1.2.862-1.533-1.701-6.6-6.219-6.6-5.885m-29.2 2.493c0 .218.495.833 1.1 1.366l1.1.97-1-1.2c-.55-.66-1.045-1.275-1.1-1.367-.055-.091-.1.012-.1.231m100.892 2.671c-.433.734-1.103 1.859-1.487 2.5l-.7 1.165.828-1c.946-1.143 2.611-4 2.332-4-.102 0-.54.601-.973 1.335m45.694-.743c-.212.305-1.71 2.006-3.328 3.781-1.619 1.775-2.859 3.227-2.756 3.227.325 0 6.805-7.226 6.634-7.398-.091-.09-.338.086-.55.39m-138.787 7.857c3.913 4.882 6.298 7.639 5.148 5.951-.93-1.365-8.656-10.82-9.031-11.052-.223-.138 1.524 2.157 3.883 5.101m32.801-1.249c1.528 1.54 2.869 2.8 2.979 2.8s-1.051-1.26-2.579-2.8-2.869-2.8-2.979-2.8 1.051 1.26 2.579 2.8m56.552.1c-.262.495-.737 1.35-1.056 1.9-.557.959-.553.967.092.2.798-.948 1.917-3 1.636-3-.108 0-.41.405-.672.9m41.273 2.469-1.375 1.631 1.555-1.487c.855-.817 1.474-1.551 1.375-1.63-.099-.08-.799.589-1.555 1.486m-93.425 2.231c.859.88 1.652 1.6 1.762 1.6s-.503-.72-1.362-1.6-1.652-1.6-1.762-1.6.503.72 1.362 1.6m90.775.9-1.175 1.3 1.3-1.175c.715-.646 1.3-1.231 1.3-1.3 0-.309-.33-.037-1.425 1.175m-42.722 1.2-.72 1.3.825-1c.731-.887 1.056-1.6.728-1.6-.062 0-.437.585-.833 1.3m-44.091 2.6c1.28 1.595 2.408 2.9 2.506 2.9.289 0-3.322-4.583-4.112-5.218-.397-.32.325.723 1.606 2.318m84.264-.978-.975 1.278 1.275-1.175c1.325-1.222 1.477-1.44.974-1.403-.165.012-.738.597-1.274 1.3m-119.62-.289c.003.202.65 1.087 1.438 1.967l1.432 1.6-1.315-1.8c-.724-.99-1.371-1.875-1.438-1.967-.068-.091-.12-.001-.117.2m117.369 3.067-1.175 1.3 1.3-1.175c1.212-1.095 1.484-1.425 1.175-1.425-.069 0-.654.585-1.3 1.3m-41.175.7c-.341.66-.531 1.2-.421 1.2s.48-.54.821-1.2.531-1.2.421-1.2-.48.54-.821 1.2m-37.409 1.988c.466.653 1.051 1.314 1.3 1.468.25.155-.05-.38-.666-1.188-1.337-1.753-1.841-1.976-.634-.28m35.009 2.012c-.341.66-.531 1.2-.421 1.2s.48-.54.821-1.2.531-1.2.421-1.2-.48.54-.821 1.2m37.487 2.644c-.722.966-1.232 1.756-1.133 1.756.283 0 2.759-3.221 2.594-3.374-.081-.076-.739.652-1.461 1.618m-103.512-.112c.616.807 1.201 1.468 1.3 1.468.278 0-1.454-2.34-1.966-2.656-.25-.155.05.38.666 1.188m2.4 3.2c.616.807 1.201 1.468 1.3 1.468.278 0-1.454-2.34-1.966-2.656-.25-.155.05.38.666 1.188m59.678 1.168-.72 1.3.825-1c.731-.887 1.056-1.6.728-1.6-.062 0-.437.585-.833 1.3m36.347 2.3c-1.016 1.32-1.757 2.4-1.647 2.4s1.031-1.08 2.047-2.4 1.757-2.4 1.647-2.4-1.031 1.08-2.047 2.4m-60.4-.8c.341.66.711 1.2.821 1.2s-.08-.54-.421-1.2-.711-1.2-.821-1.2.08.54.421 1.2m-33.225.532c.616.807 1.201 1.468 1.3 1.468.278 0-1.454-2.34-1.966-2.656-.25-.155.05.38.666 1.188m55.625.668c-.341.66-.531 1.2-.421 1.2s.48-.54.821-1.2.531-1.2.421-1.2-.48.54-.821 1.2m-20.8 1.6c.341.66.711 1.2.821 1.2s-.08-.54-.421-1.2-.711-1.2-.821-1.2.08.54.421 1.2m19.2 1.2c-.341.66-.531 1.2-.421 1.2s.48-.54.821-1.2.531-1.2.421-1.2-.48.54-.821 1.2m-50.427 1.618c2.258 3.156 3.062 3.838 1.015.86-.954-1.386-1.924-2.638-2.155-2.781-.232-.143.281.721 1.14 1.921m48.827 1.182c-.341.66-.531 1.2-.421 1.2s.48-.54.821-1.2.531-1.2.421-1.2-.48.54-.821 1.2m36.944-.5c-1.151 1.389-1.638 2.1-1.44 2.1.11 0 .682-.63 1.269-1.4 1.09-1.429 1.222-1.968.171-.7m-52.144.9c.341.66.711 1.2.821 1.2s-.08-.54-.421-1.2-.711-1.2-.821-1.2.08.54.421 1.2m13.6 2.4c-.341.66-.531 1.2-.421 1.2s.48-.54.821-1.2.531-1.2.421-1.2-.48.54-.821 1.2m35.344 1.1c-1.151 1.389-1.638 2.1-1.44 2.1.11 0 .682-.63 1.269-1.4 1.09-1.429 1.222-1.968.171-.7m-76.908 2.883c1.219 1.769 2.3 3.217 2.402 3.217.272 0-3.753-5.9-4.222-6.19-.218-.135.601 1.203 1.82 2.973m39.964-1.183c-.341.66-.531 1.2-.421 1.2s.48-.54.821-1.2.531-1.2.421-1.2-.48.54-.821 1.2m34.715 1.3c-1.734 2.267-2.649 3.62-2.306 3.413.472-.286 3.128-3.913 2.865-3.913-.097 0-.348.225-.559.5m-38.796 6.5c-.765 1.604-1.154 1.749-1.529.57-.144-.457-.343-.75-.441-.652-.232.231.699 2.282 1.035 2.282.141 0 .65-.81 1.131-1.8s.784-1.8.673-1.8c-.11 0-.501.63-.869 1.4m34.206-.1c-1.621 2.174-2.885 4.136-2.254 3.5.815-.821 3.642-4.8 3.411-4.8-.103 0-.623.585-1.157 1.3m-64.069 2.4c2.135 3.523 4.326 6.612 3.333 4.7-.717-1.381-3.265-5.2-3.469-5.2-.092 0-.031.225.136.5m55.58 9.8c-1.974 2.797-4.304 6.603-3.735 6.1.428-.378 6.276-9.2 6.099-9.2-.097 0-1.161 1.395-2.364 3.1m-48.606 1.1c.494.88 1.07 1.78 1.28 2 .599.628-.771-1.906-1.514-2.8-.366-.44-.261-.08.234.8m2.97 5c.341.66.711 1.2.821 1.2s-.08-.54-.421-1.2-.711-1.2-.821-1.2.08.54.421 1.2m1.586 2.7c.349.715.72 1.3.824 1.3.398 0 .142-.637-.643-1.6l-.815-1zm1.374 2.3c.674 1.305 1.228 2.028 1.225 1.6-.002-.22-.371-.85-.821-1.4-.543-.664-.679-.731-.404-.2m33.962 2.3c-1.425 2.15-2.624 4.277-2.185 3.875.209-.191 2.652-3.899 3.607-5.475.876-1.445-.226-.206-1.422 1.6m-29.722 5.5c.341.66.711 1.2.821 1.2s-.08-.54-.421-1.2-.711-1.2-.821-1.2.08.54.421 1.2m24.8 2.4c-.341.66-.531 1.2-.421 1.2s.48-.54.821-1.2.531-1.2.421-1.2-.48.54-.821 1.2m-3.986 6.635c-.373.569-.609 1.103-.525 1.187.084.085.469-.381.855-1.034.862-1.46.604-1.579-.33-.153m-2.4 4c-.373.569-.587 1.126-.475 1.237.111.111.49-.354.842-1.035.778-1.504.563-1.622-.367-.202m-3.214 5.765c-.341.66-.531 1.2-.421 1.2s.48-.54.821-1.2.531-1.2.421-1.2-.48.54-.821 1.2m-2.654 4.416c-.58.651-.922 1.184-.762 1.184.309 0 1.301-1.06 1.779-1.9.452-.795.118-.56-1.017.716" fill="#fcbcbc"/></g></svg>